# xmcd
#
# Track frame offsets:
#	150
#	13955
#	26062
#	38137
#	49462
#	63262
#	77487
#	94987
#	110900
#	122150
#	134757
#	146762
#	164012
#	177800
#
# Disc length: 2590 seconds
#
# Revision: 0
# Processed by: cddbd v1.4PL0 Copyright (c) Steve Scherf et al.
# Submitted via: audiograbber 1.81.02
#
DISCID=d30a1c0e
DTITLE=Dusty Springfield - Blue For You
DYEAR=1993
DGENRE=Pop
TTITLE0=I Just Don't Know What To Do With Myself
TTITLE1=Your Hurtin' Kinda Love
TTITLE2=Will You Love Me Tomorrow
TTITLE3=Every Day I Have To Cry
TTITLE4=Some Of Your Lovin'
TTITLE5=No Easy Way Down
TTITLE6=If You Go Away
TTITLE7=Goin' Back
TTITLE8=Morning Please Don't Come
TTITLE9=How Can I Be Sure
TTITLE10=What Do You Do When Your Love Dies
TTITLE11=I Can't Make It Alone
TTITLE12=My Colouring Book
TTITLE13=Yesterday When I Was Young
EXTD=
EXTT0=
EXTT1=
EXTT2=
EXTT3=
EXTT4=
EXTT5=
EXTT6=
EXTT7=
EXTT8=
EXTT9=
EXTT10=
EXTT11=
EXTT12=
EXTT13=
PLAYORDER=
